<svg xmlns="http://www.w3.org/2000/svg" width="36.899" height="25.944" viewBox="0 0 36.899 25.944">
  <g id="bars" transform="translate(0 -76)">
    <g id="Group_4167" data-name="Group 4167" transform="translate(0 87.531)">
      <g id="Group_4166" data-name="Group 4166">
        <path id="Path_4751" data-name="Path 4751" d="M35.457,236H1.441a1.441,1.441,0,0,0,0,2.883H35.457a1.441,1.441,0,0,0,0-2.883Z" transform="translate(0 -236)" fill="#fff"/>
      </g>
    </g>
    <g id="Group_4169" data-name="Group 4169" transform="translate(0 76)">
      <g id="Group_4168" data-name="Group 4168">
        <path id="Path_4752" data-name="Path 4752" d="M35.457,76H1.441a1.441,1.441,0,0,0,0,2.883H35.457a1.441,1.441,0,0,0,0-2.883Z" transform="translate(0 -76)" fill="#fff"/>
      </g>
    </g>
    <g id="Group_4171" data-name="Group 4171" transform="translate(0 99.062)">
      <g id="Group_4170" data-name="Group 4170">
        <path id="Path_4753" data-name="Path 4753" d="M35.457,396H1.441a1.441,1.441,0,1,0,0,2.883H35.457a1.441,1.441,0,1,0,0-2.883Z" transform="translate(0 -396)" fill="#fff"/>
      </g>
    </g>
  </g>
</svg>
