<svg xmlns="http://www.w3.org/2000/svg" width="133.5" height="46.748" viewBox="0 0 133.5 46.748">
  <g id="logo_white" data-name="logo white" transform="translate(-214.5 -20.399)">
    <text id="Marketing" transform="translate(260 58)" fill="#fff" font-size="18" font-family="SegoeUI-Bold, Segoe UI" font-weight="700"><tspan x="0" y="0">Marketing</tspan></text>
    <g id="Group_1540" data-name="Group 1540" transform="translate(215 20.899)">
      <g id="Group_1539" data-name="Group 1539">
        <path id="Path_1524" data-name="Path 1524" d="M211.9,497.138a2.7,2.7,0,0,1-1.787-3.027h39.124c.2,1.605-.18,2.256-1.755,3.027Z" transform="translate(-210.088 -451.39)" fill="#fff" stroke="rgba(0,0,0,0)" stroke-width="1"/>
        <path id="Path_1525" data-name="Path 1525" d="M318.617,284l1.21.479-.589,2.177-1.484-.414.66-2.241Z" transform="translate(-295.863 -284)" fill="#fff" stroke="rgba(0,0,0,0)" stroke-width="1"/>
        <path id="Path_1526" data-name="Path 1526" d="M254.308,403.11c1.674-.848,2.973-2.214,4.955-2.189,2.1.026,4.195.006,6.374.006v17.2H237.561V400.987h2.649c-.006.1-.013.191-.016.28-.046,1.425.3,2.906-.865,4.14-.228.242-.115.939.022,1.369a3.234,3.234,0,0,0,5.532,1.5,3.354,3.354,0,0,0,4.533-.061c2.1,1.8,4.185,3.574,6.266,5.354,1.111.95,1.777.938,2.8-.066.58-.569,1.157-1.142,1.723-1.725a1.66,1.66,0,0,0-.009-2.714c-1.716-1.731-3.447-3.448-5.168-5.173C254.819,403.684,254.626,403.458,254.308,403.11Z" transform="translate(-231.975 -377.147)" fill="#fff" stroke="rgba(0,0,0,0)" stroke-width="1"/>
        <path id="Path_1527" data-name="Path 1527" d="M307.108,329.774l-10.584,5.767c-2-2.035-4-4.05-5.972-6.1a.845.845,0,0,1-.057-.775c1.82-3.4,3.67-6.775,5.488-10.113Z" transform="translate(-274.093 -311.531)" fill="#fff" stroke="rgba(0,0,0,0)" stroke-width="1"/>
        <path id="Path_1528" data-name="Path 1528" d="M263.021,377.235l5.986,5.946c-1.675,1.721-3.312,3.505-5.088,5.139a1.866,1.866,0,0,1-1.809-.049,54.8,54.8,0,0,1-4.116-4.05,1.377,1.377,0,0,1,.036-2.02C259.676,380.512,261.371,378.87,263.021,377.235Z" transform="translate(-247.915 -358.278)" fill="#fff" stroke="rgba(0,0,0,0)" stroke-width="1"/>
        <path id="Path_1529" data-name="Path 1529" d="M223.617,406.274h-1.449V386.016h8.42a2.563,2.563,0,0,1-2.6,1.464,23.04,23.04,0,0,0-2.84-.02c-1.36.008-1.532.164-1.533,1.506q-.007,7.208,0,14.416C223.618,404.32,223.617,405.26,223.617,406.274Z" transform="translate(-219.712 -365.273)" fill="#fff" stroke="rgba(0,0,0,0)" stroke-width="1"/>
        <path id="Path_1530" data-name="Path 1530" d="M362.245,405.518h-1.465v-1.209q0-8.074,0-16.147c0-1.3-.15-1.441-1.473-1.444-1.448,0-2.9,0-4.424,0,1.794-1.55,4.015-1.957,7.363-1.383Z" transform="translate(-325.441 -364.533)" fill="#fff" stroke="rgba(0,0,0,0)" stroke-width="1"/>
        <path id="Path_1531" data-name="Path 1531" d="M308.976,423.04l1.457,1.576-2.253,2.1-6.207-5.318,2.776-2.648.834.874-1.021,1.15,1.172.979,1.045-.97,1.032,1.034-1.089,1.228,1.222.92Z" transform="translate(-283.29 -391.35)" fill="#fff" stroke="rgba(0,0,0,0)" stroke-width="1"/>
        <path id="Path_1532" data-name="Path 1532" d="M256.337,423.246c-.861.882-.965.871-2.181-.384-.781-.806-.766-1.063.16-1.906Z" transform="translate(-244.748 -393.109)" fill="#fff" stroke="rgba(0,0,0,0)" stroke-width="1"/>
        <path id="Path_1533" data-name="Path 1533" d="M381.339,336.4l-.76-1.327,2-1.17.773,1.338Z" transform="translate(-345.914 -323.752)" fill="#fff" stroke="rgba(0,0,0,0)" stroke-width="1"/>
        <path id="Path_1534" data-name="Path 1534" d="M344.93,295.137l-1.154,2-1.322-.748,1.141-2.022Z" transform="translate(-315.54 -292.259)" fill="#fff" stroke="rgba(0,0,0,0)" stroke-width="1"/>
        <path id="Path_1535" data-name="Path 1535" d="M391.993,362.644l-.368-1.471,2.2-.595.392,1.458Z" transform="translate(-354.714 -345.008)" fill="#fff" stroke="rgba(0,0,0,0)" stroke-width="1"/>
        <path id="Path_1536" data-name="Path 1536" d="M365.335,314.571l-.805-.936,1.627-1.561.932.892Z" transform="translate(-333.128 -306.366)" fill="#fff" stroke="rgba(0,0,0,0)" stroke-width="1"/>
      </g>
    </g>
  </g>
</svg>
